<?xml version="1.0" encoding="UTF-8"?>
<svg version="1.1" xmlns="http://www.w3.org/2000/svg" width="512" height="512" viewBox="0 0 1024 1024">
  <!-- Narwhal - white on transparent, sized for mobile icon safe zone -->
  <g transform="translate(900, 155) scale(1.2)">
    <path d="M0 0 C2.64586521 0.88340565 3.86182892 1.43914706 5.375 3.79296875 C5.00440234 8.40485074 2.77469611 11.76233153 0.3125 15.54296875 C-0.11724121 16.21618164 -0.54698242 16.88939453 -0.98974609 17.58300781 C-1.96883802 19.1147638 -2.95150885 20.64423581 -3.93701172 22.171875 C-5.82375579 25.10159504 -7.69564959 28.0405155 -9.56640625 30.98046875 C-15.56764239 40.39807335 -21.59624039 49.78805327 -27.80761719 59.06884766 C-30.13598335 62.55889463 -32.4180553 66.07694856 -34.6875 69.60546875 C-39.06432284 76.38876536 -43.4633834 83.15725035 -47.875 89.91796875 C-48.50720459 90.88686035 -49.13940918 91.85575195 -49.79077148 92.85400391 C-51.08601055 94.83876297 -52.38133998 96.82346307 -53.67675781 98.80810547 C-61.54309645 110.85996715 -69.40733386 122.91318497 -77.25 134.98046875 C-77.77650146 135.7904834 -78.30300293 136.60049805 -78.84545898 137.43505859 C-81.55692062 141.60749994 -84.26611144 145.78139874 -86.97265625 149.95703125 C-91.96573661 157.65636261 -96.97060251 165.34602944 -102.0625 172.98046875 C-102.46525146 173.58850342 -102.86800293 174.19653809 -103.28295898 174.82299805 C-105.01967789 177.43662003 -106.7851831 180.01078058 -108.64453125 182.5390625 C-109.50111328 183.71662109 -109.50111328 183.71662109 -110.375 184.91796875 C-111.10976562 185.88089844 -111.10976562 185.88089844 -111.859375 186.86328125 C-112.86354645 188.85015547 -112.86354645 188.85015547 -112.01953125 191.2578125 C-110.48730013 194.04329709 -108.78924527 195.96445108 -106.5625 198.23046875 C-84.29053847 222.39411932 -75.4837033 255.19634288 -76.34375 287.4765625 C-78.72205454 341.13705871 -107.38006065 385.91980858 -145.625 421.79296875 C-149.20769145 424.90439436 -152.89422086 427.86164229 -156.625 430.79296875 C-158.12160156 431.99759766 -158.12160156 431.99759766 -159.6484375 433.2265625 C-167.88922563 439.79243553 -176.57348402 445.41416631 -185.625 450.79296875 C-186.30626953 451.20546875 -186.98753906 451.61796875 -187.68945312 452.04296875 C-223.81484375 473.79296875 -223.81484375 473.79296875 -240.625 473.79296875 C-241.01365234 474.8603125 -241.01365234 474.8603125 -241.41015625 475.94921875 C-252.91360181 502.87689838 -281.4283416 524.18872887 -307.625 534.79296875 C-312.95154964 536.6933501 -318.99515184 537.82566279 -324.625 536.79296875 C-326.38671875 535.7109375 -326.38671875 535.7109375 -327.625 533.79296875 C-328.47219991 527.32883347 -326.29272277 521.60162595 -324.375 515.48046875 C-321.29446451 505.33098881 -318.73728334 495.1838284 -316.625 484.79296875 C-318.51412109 485.27636719 -318.51412109 485.27636719 -320.44140625 485.76953125 C-328.72853415 487.41328314 -337.1478224 487.18642113 -345.5625 487.16796875 C-346.44772339 487.16775726 -347.33294678 487.16754578 -348.24499512 487.16732788 C-363.67560775 487.13062477 -378.48300476 485.95712184 -393.625 482.79296875 C-394.53040527 482.60573242 -395.43581055 482.41849609 -396.36865234 482.22558594 C-406.93873135 479.96433497 -417.08644917 476.80135105 -427.18139648 472.94018555 C-427.96716064 472.64668213 -428.7529248 472.35317871 -429.5625 472.05078125 C-430.59697266 471.65076904 -430.59697266 471.65076904 -431.65234375 471.24267578 C-433.97028472 470.71425409 -435.39147008 471.0528309 -437.625 471.79296875 C-437.955 470.80296875 -438.285 469.81296875 -438.625 468.79296875 C-440.796407 467.32148224 -440.796407 467.32148224 -443.5078125 466.015625 C-444.51070312 465.50193359 -445.51359375 464.98824219 -446.546875 464.45898438 C-447.60390625 463.92982422 -448.6609375 463.40066406 -449.75 462.85546875 C-451.81570706 461.80587321 -453.88082541 460.7551181 -455.9453125 459.703125 C-456.92741699 459.20369385 -457.90952148 458.7042627 -458.92138672 458.18969727 C-470.4120182 452.25345899 -479.8844271 444.20391434 -489.625 435.79296875 C-490.52992188 435.014375 -491.43484375 434.23578125 -492.3671875 433.43359375 C-520.61494002 408.61781116 -538.13297763 374.52831483 -544.625 337.79296875 C-545.97078125 337.4990625 -545.97078125 337.4990625 -547.34375 337.19921875 C-560.92941852 333.94314944 -573.41860774 328.21836293 -584.625 319.79296875 C-585.470625 319.17292969 -586.31625 318.55289062 -587.1875 317.9140625 C-604.908554 304.24569273 -620.58793604 282.80770556 -623.5625 260.16796875 C-623.88430678 256.73926374 -623.43969457 254.73865253 -621.625 251.79296875 C-612.23337468 245.18404723 -594.87337314 248.52168039 -584.12353516 250.38061523 C-577.53227355 251.64925897 -571.6255908 253.76695653 -565.625 256.79296875 C-564.68140625 257.25832031 -563.7378125 257.72367187 -562.765625 258.203125 C-556.49409899 261.45149828 -551.06558606 265.31184476 -545.625 269.79296875 C-544.614375 270.55609375 -543.60375 271.31921875 -542.5625 272.10546875 C-541.923125 272.66234375 -541.28375 273.21921875 -540.625 273.79296875 C-540.625 274.45296875 -540.625 275.11296875 -540.625 275.79296875 C-539.965 275.79296875 -539.305 275.79296875 -538.625 275.79296875 C-536.93359375 277.5078125 -536.93359375 277.5078125 -535.0625 279.73046875 C-534.13244141 280.82681641 -534.13244141 280.82681641 -533.18359375 281.9453125 C-532.41208984 282.85990234 -532.41208984 282.85990234 -531.625 283.79296875 C-531.295 284.12296875 -530.965 284.45296875 -530.625 284.79296875 C-530.2125 283.76558594 -529.8 282.73820312 -529.375 281.6796875 C-525.73406218 272.84779429 -521.77040001 265.20190895 -515.625 257.79296875 C-514.92503906 256.93058594 -514.22507812 256.06820313 -513.50390625 255.1796875 C-501.93628603 241.59134218 -485.27161736 231.82839273 -467.625 228.79296875 C-466.80257812 228.64085937 -465.98015625 228.48875 -465.1328125 228.33203125 C-460.19300861 227.58357611 -456.32079793 227.78048392 -451.625 229.79296875 C-446.07061936 238.45628599 -448.73351899 251.28872277 -450.625 260.79296875 C-456.42135103 286.21954672 -471.51855602 308.93235513 -493.67871094 322.88964844 C-497.23406241 325.05995864 -500.87722428 326.97861439 -504.625 328.79296875 C-499.31729962 340.44401836 -487.08237481 349.400264 -475.4375 353.98046875 C-457.87876144 359.92194012 -440.35850044 358.54527313 -423.8125 350.41015625 C-409.72866254 342.3559617 -398.36091995 330.61163974 -388.625 317.79296875 C-388.18430176 317.21804688 -387.74360352 316.643125 -387.28955078 316.05078125 C-379.73435629 306.18527838 -372.56599614 296.09796091 -365.625 285.79296875 C-365.16689941 285.1160498 -364.70879883 284.43913086 -364.23681641 283.74169922 C-357.90286855 274.37397307 -351.75947723 264.89487974 -345.6875 255.35546875 C-332.12372591 234.10106044 -318.01006543 214.10937697 -300.625 195.79296875 C-300.0371875 195.15230469 -299.449375 194.51164063 -298.84375 193.8515625 C-276.58816452 170.34137294 -241.66950437 154.23424204 -209.38769531 152.63232422 C-191.0868703 152.45936413 -174.09527832 155.68147038 -156.625 160.79296875 C-152.90464651 157.09755318 -149.18775774 153.39869793 -145.47387695 149.69677734 C-144.21307785 148.44097055 -142.95137824 147.18606711 -141.6887207 145.93212891 C-132.63273759 136.95636849 -132.63273759 136.95636849 -124.09985352 127.48828125 C-121.10372823 124.04429946 -117.78467094 120.9122584 -114.51953125 117.7265625 C-111.63607176 114.88499347 -108.89095672 111.98751502 -106.25 108.91796875 C-101.75582919 103.71707341 -96.84233286 98.961691 -91.94140625 94.1484375 C-87.82537261 90.07706246 -83.91065756 85.91405588 -80.13476562 81.52539062 C-78.38521452 79.51782034 -76.5403701 77.6422916 -74.625 75.79296875 C-72.06630741 73.27341486 -69.64329389 70.71178093 -67.3125 67.98046875 C-63.96159594 64.07747066 -60.34023106 60.47822881 -56.68139648 56.86889648 C-53.36483929 53.57979139 -50.26523622 50.17153118 -47.234375 46.62109375 C-45.59913566 44.76358887 -43.89018207 43.02690866 -42.125 41.29296875 C-39.81424552 39.02284292 -37.65598358 36.70172381 -35.5625 34.23046875 C-32.11108094 30.2155527 -28.38560883 26.51429717 -24.625 22.79296875 C-20.88531783 19.09230765 -17.17780643 15.41444352 -13.75 11.41796875 C-11.37257251 8.65030695 -8.98426094 5.9033495 -6.5 3.23046875 C-5.87867188 2.54855469 -5.25734375 1.86664063 -4.6171875 1.1640625 C-2.625 -0.20703125 -2.625 -0.20703125 0 0 Z M-204.4375 237.48046875 C-208.56617066 241.84506345 -210.83771256 246.35892545 -211.0625 252.41796875 C-210.73005733 258.67003567 -207.98561737 263.23823736 -203.484375 267.4609375 C-199.23922819 270.5021036 -194.40586942 271.94027002 -189.19140625 271.6640625 C-183.07611348 270.51937869 -178.61831811 267.9523967 -174.375 263.35546875 C-171.05085044 258.48796404 -170.02218222 254.72067689 -170.625 248.79296875 C-172.61135628 242.65548468 -176.19554967 238.24600829 -181.625 234.79296875 C-190.03062907 231.65866639 -196.89306174 232.95380579 -204.4375 237.48046875 Z" fill="white"/>
  </g>
</svg>
